<?xml version="1.0" encoding="utf-8"?>
<!-- Generator: Adobe Illustrator 26.4.1, SVG Export Plug-In . SVG Version: 6.00 Build 0)  -->
<svg version="1.1" id="Layer_3" xmlns="http://www.w3.org/2000/svg" xmlns:xlink="http://www.w3.org/1999/xlink" x="0px" y="0px"
	 viewBox="0 0 200 200" style="enable-background:new 0 0 200 200;" xml:space="preserve">
<style type="text/css">
	.st0{fill:#C8AAF1;}
	.st1{fill:none;stroke:#000000;stroke-linecap:round;stroke-miterlimit:10;}
	.st2{fill:none;stroke:#231F20;stroke-miterlimit:10;}
	.st3{fill:none;stroke:#FFFFFF;stroke-miterlimit:10;}
	.st4{fill:#673AB7;}
	.st5{stroke:#000000;stroke-miterlimit:10;}
	.st6{fill:none;stroke:#000000;stroke-miterlimit:10;}
	.st7{fill:none;stroke:#231F20;stroke-linecap:round;stroke-miterlimit:10;}
	.st8{fill:#EFBBA5;}
	.st9{fill:none;stroke:#FFFFFF;stroke-width:1.5;stroke-linecap:round;stroke-miterlimit:10;}
</style>
<path d="M158.7,82.8c-0.6-1-1.7-1.6-2.9-1.6H99.5c-1.4,0-2.6,0.8-3.2,2.1l-4.9,11.1l15.6,0.2c0.8,0,1.5,0.4,2,1l28.1,37.1l0.9,0.8
	h1.2L159,86.1C159.5,85,159.3,83.8,158.7,82.8L158.7,82.8z"/>
<path class="st0" d="M102.5,74.4V32.2c0-0.9,0.5-1.6,1.3-1.9l35.1-12.5c1.3-0.5,2.7,0.5,2.7,1.9v42.2c0,0.8-0.5,1.6-1.3,1.9
	l-35.1,12.4C103.8,76.7,102.5,75.7,102.5,74.4z"/>
<line class="st1" x1="142.1" y1="46.3" x2="142.1" y2="47.2"/>
<path class="st1" d="M117,26.2l22.4-8c1.3-0.5,2.7,0.5,2.7,1.9v21.4"/>
<path class="st2" d="M114.8,101.7L142,91.5c1.2-0.5,1.7-2,0.9-3l-24.8-34.2c-0.5-0.7-1.5-1-2.3-0.7L66.5,72.1c-1.2,0.5-1.7,2-0.9,3
	l13.7,19"/>
<path class="st3" d="M114.8,101.7L142,91.5c1.2-0.5,1.7-2,0.9-3l-4.9-6.8"/>
<path class="st4" d="M90.3,109.4L78.9,93.6h-3.5c-0.7,0-1.3-0.3-1.8-0.7l-5.2-5.2c-1-1-2.4-1.6-3.9-1.6H36c-1.4,0-2.6,0.8-3.2,2
	c-0.6,1.2-0.4,2.7,0.4,3.7l32,39.7c1.1,1.3,2.6,2,4.3,2h69.3l-24.1-31.8L92.7,110C91.8,110.4,90.9,110.1,90.3,109.4L90.3,109.4z"/>
<path class="st4" d="M107,93.6h-28l-2.3,19.6c0.5,0.7,21.9,4,22.8,3.7l15.4-15.2l-5.1-6.7C109.1,94.1,108,93.6,107,93.6L107,93.6z"
	/>
<path class="st4" d="M145.7,76.8V61.1c0-0.5,0.3-0.9,0.8-1l19.7-4.7c0.6-0.2,1.2,0.3,1.2,1v15.9c0,0.5-0.3,0.9-0.8,1l-19.7,4.4
	C146.3,77.9,145.7,77.4,145.7,76.8L145.7,76.8z"/>
<circle class="st5" cx="83.7" cy="18.9" r="5.2"/>
<circle class="st5" cx="49" cy="75.2" r="3.4"/>
<circle class="st6" cx="154.1" cy="48.5" r="3.4"/>
<path class="st5" d="M165.6,115.3c0,1.2-1,2.2-2.2,2.2s-2.2-1-2.2-2.2s1-2.2,2.2-2.2S165.6,114.1,165.6,115.3z"/>
<path class="st0" d="M79.9,56.1c5.8-1.9,8.5-8.4,5.9-13.9l-5.6-11.5c-0.4-0.9-1.4-1.3-2.3-1l-18.7,5.2c-1.2,0.3-1.8,1.6-1.3,2.8
	l5,11c2,4.4,0.6,9.7-3.4,12.4l-5.2,3.6"/>
<polyline class="st7" points="47.9,66.6 72.6,58.5 75.7,57.5 "/>
<line class="st7" x1="44" y1="68" x2="45" y2="67.6"/>
<line class="st7" x1="80.1" y1="56.1" x2="81.1" y2="55.8"/>
<polygon class="st5" points="106.1,51.7 97.2,54.8 100,48.5 102.8,42.1 108.9,45.4 115,48.7 "/>
<g>
	<g>
		<path class="st8" d="M123.4,151.6h-1.2c0,0,0,0,0,0c0.4-0.6,0.5-1.4,0.2-2.1c-0.4-1-1.5-1.6-2.6-1.3l-2.9,0.6l1.9-1.2
			c0.8-0.4,1.1-1.4,0.8-2.2c-0.3-0.9-1.3-1.4-2.3-1.1l-21.9,7c-1.5-0.3-2.9-1.2-3.7-2.6C91,147,91,145,92,143.3l5.7-9.4
			c0.6-1.1,0.4-2.4-0.5-3.2c-0.9-0.8-2.2-0.8-3.1,0l-9.3,7.5c-8.9,7.2-15.2,16.9-18.3,28l-2.7,10.1l28.7,11.4l0-17.8
			c0-2.4,1.4-4.6,3.6-5.6c7.1-3.2,14.6-5.6,22.2-7.2l5.5-1.2c1-0.2,1.7-1.1,1.7-2.1C125.6,152.6,124.6,151.6,123.4,151.6
			L123.4,151.6z"/>
		<polygon points="61.9,183.4 57.6,200.1 92.5,200.1 92.5,187.7 63.8,176.3 		"/>
	</g>
	<path class="st7" d="M93.1,140.9l4.3-7.5c0.5-0.9,0.3-1.9-0.4-2.6l0,0c-0.7-0.6-1.8-0.6-2.6,0l-9.4,7.6
		c-8.9,7.2-15.4,17.1-18.4,28.2"/>
	<path class="st7" d="M118.6,156.7l5.6-1.2c0.8-0.2,1.4-0.9,1.4-1.7l0,0c0-0.9-0.8-1.7-1.7-1.7L96.7,152c-2.3,0-4.1-1.2-5.1-2.9"/>
	<path class="st7" d="M92,170.2c0-2.7,1.6-5.1,4-6.2l0,0c3.4-1.5,6.9-2.9,10.4-4.1"/>
	<line class="st7" x1="92" y1="177.1" x2="92" y2="175.5"/>
	<path class="st2" d="M105.6,152l14.8-3.4c0.8-0.2,1.7,0.2,2,1l0,0c0.5,1.1-0.4,2.4-1.6,2.4l-0.8,0"/>
	<path class="st2" d="M114.4,150l4.7-2.8c0.6-0.3,0.8-1,0.6-1.6l0,0c-0.2-0.7-1-1-1.7-0.8l-13.2,4.2l-4.8,1.5l-4.3,1.4"/>
</g>
<line class="st7" x1="91.8" y1="143.4" x2="91.4" y2="144.2"/>
<circle class="st6" cx="35.6" cy="130.3" r="2.6"/>
<circle class="st6" cx="119.8" cy="175.5" r="2.6"/>
<g>
	<path class="st9" d="M86.3,122.1c0,0-1.9-2.9-3.2-5.8c-1.5-3.3-3.7-7.5-1-7.8c4.7-0.6,12.5,13.6,12.5,13.6"/>
	<line class="st9" x1="83.3" y1="116.3" x2="90.3" y2="116.3"/>
</g>
</svg>
