<?xml version="1.0" encoding="UTF-8"?>
<svg id="Layer_8" data-name="Layer 8" xmlns="http://www.w3.org/2000/svg" viewBox="0 0 200 200">
  <defs>
    <style>
      .cls-1 {
        fill: #f8f3fc;
      }

      .cls-2 {
        fill: #fff;
      }

      .cls-3 {
        fill: #efbba5;
      }

      .cls-4, .cls-5 {
        fill: none;
      }

      .cls-4, .cls-5, .cls-6, .cls-7 {
        stroke: #000;
        stroke-miterlimit: 10;
      }

      .cls-8 {
        fill: #c8aaf1;
      }

      .cls-5, .cls-7 {
        stroke-linecap: round;
      }

      .cls-9 {
        fill: #673AB7;
      }
    </style>
  </defs>
  <g>
    <path class="cls-1" d="M10.52,144.17c0,3.31,2.69,6,6,6H176.89c3.31,0,6-2.69,6-6V59.77H10.52v84.4Z"/>
    <path class="cls-9" d="M176.89,35.23H16.52c-3.31,0-6,2.69-6,6v18.54H182.89v-18.54c0-3.31-2.69-6-6-6Z"/>
  </g>
  <g>
    <circle class="cls-1" cx="25.5" cy="47.98" r="4.23"/>
    <circle class="cls-1" cx="37.92" cy="47.98" r="4.23"/>
    <circle class="cls-1" cx="50.23" cy="47.98" r="4.23"/>
  </g>
  <g>
    <circle class="cls-4" cx="141.72" cy="15.84" r="2.63"/>
    <circle class="cls-5" cx="68.23" cy="162.16" r="3.09"/>
    <g>
      <rect class="cls-8" x="15.52" y="90.57" width="17.98" height="73.02" rx="3" ry="3"/>
      <g>
        <rect x="19.68" y="94.48" width="9.65" height="9.65" rx="2" ry="2"/>
        <rect class="cls-9" x="19.68" y="108.31" width="9.65" height="9.65" rx="2" ry="2"/>
      </g>
      <g>
        <path class="cls-4" d="M21.68,122.13h5.15c1.38,0,2.5,1.12,2.5,2.5v5.15c0,1.1-.9,2-2,2h-5.65c-1.1,0-2-.9-2-2v-5.65c0-1.1,.9-2,2-2Z"/>
        <rect class="cls-2" x="19.68" y="135.95" width="9.65" height="9.65" rx="2" ry="2"/>
      </g>
      <rect class="cls-4" x="19.68" y="149.77" width="9.65" height="9.65" rx="2" ry="2"/>
    </g>
    <g>
      <rect class="cls-4" x="50.96" y="90.07" width="4.02" height="4.02"/>
      <rect class="cls-4" x="50.96" y="128.91" width="4.02" height="4.02"/>
    </g>
    <g>
      <rect class="cls-4" x="126.4" y="90.07" width="4.02" height="4.02"/>
      <rect class="cls-4" x="126.4" y="128.91" width="4.02" height="4.02"/>
    </g>
    <line class="cls-5" x1="52.97" y1="128.62" x2="52.97" y2="94.36"/>
    <line class="cls-5" x1="126.15" y1="130.92" x2="55.24" y2="130.92"/>
    <line class="cls-5" x1="128.41" y1="94.36" x2="128.41" y2="128.59"/>
    <line class="cls-5" x1="55.2" y1="92.09" x2="126.17" y2="92.09"/>
    <rect class="cls-7" x="51.99" y="110.98" width="2.03" height="1.04"/>
    <rect class="cls-7" x="127.39" y="110.98" width="2.03" height="1.04"/>
    <rect class="cls-7" x="89.67" y="91.57" width="2.03" height="1.04" transform="translate(182.77 1.4) rotate(90)"/>
    <rect class="cls-7" x="89.67" y="130.4" width="2.03" height="1.04" transform="translate(221.61 40.23) rotate(90)"/>
    <path d="M132.58,133.45l18.07,6.48c1,.36,1.09,1.73,.15,2.23l-7.16,3.74-3.89,7.39c-.49,.94-1.86,.84-2.22-.15l-6.52-18.12c-.35-.97,.59-1.91,1.56-1.56Z"/>
    <path class="cls-5" d="M149.56,151.91c2.17,2.99,3.94,7.49,2.12,13.37-3.84,12.4-24.19,15.1-32.75,8.45-7.58-5.89-5.6-15.15,2.61-14.58s8.17,16.48-7.61,19.08c-17.67,2.9-21.36-12.3-11.05-20.59"/>
    <path class="cls-5" d="M145.94,148.19c.29,.22,.63,.5,1,.83"/>
    <path d="M83.54,103.45l1.35-1.5-.96,4.34h-1.68l.24-5.34h16.38l.24,5.34h-1.68l-.96-4.34,1.35,1.5h-14.28Zm7.44,16.95l4.2,.02v1.63h-9v-1.63l4.2-.02h.6Zm-1.65-9.15c0-3.09,0-6.21-.09-9.3h2.88c-.09,3.03-.09,6.15-.09,9.3v1.5c0,3.09,0,6.21,.09,9.3h-2.88c.09-3.03,.09-6.15,.09-9.3v-1.5Z"/>
    <g>
      <rect class="cls-8" x="143.77" y="66.6" width="52.62" height="45.68" rx="3" ry="3"/>
      <g>
        <path class="cls-9" d="M155.95,69.63v7.48h35.18c1.1,0,2-.9,2-2v-3.48c0-1.1-.9-2-2-2h-35.18Z"/>
        <path d="M147.01,71.63v3.48c0,1.1,.9,2,2,2h6.94v-7.48h-6.94c-1.1,0-2,.9-2,2Z"/>
        <circle cx="188.51" cy="73.37" r="2.18"/>
      </g>
      <g>
        <path class="cls-9" d="M155.95,80.35v7.48h35.18c1.1,0,2-.9,2-2v-3.48c0-1.1-.9-2-2-2h-35.18Z"/>
        <path d="M147.01,82.35v3.48c0,1.1,.9,2,2,2h6.94v-7.48h-6.94c-1.1,0-2,.9-2,2Z"/>
        <circle class="cls-4" cx="188.51" cy="84.09" r="2.18"/>
      </g>
      <g>
        <path class="cls-2" d="M155.95,98.54h35.18c1.1,0,2-.9,2-2v-3.48c0-1.1-.9-2-2-2h-35.18v7.48Z"/>
        <path d="M147.01,93.06v3.48c0,1.1,.9,2,2,2h6.94v-7.48h-6.94c-1.1,0-2,.9-2,2Z"/>
        <circle cx="188.51" cy="94.8" r="2.18"/>
      </g>
      <g>
        <path class="cls-9" d="M156.04,109.26h35.18c1.1,0,2-.9,2-2v-3.48c0-1.1-.9-2-2-2h-35.18v7.48Z"/>
        <path d="M147.1,103.78v3.48c0,1.1,.9,2,2,2h6.94v-7.48h-6.94c-1.1,0-2,.9-2,2Z"/>
        <circle cx="188.59" cy="105.52" r="2.18"/>
      </g>
    </g>
    <g>
      <g>
        <g>
          <polygon class="cls-3" points="97.37 53 94.48 60.02 99.19 64.73 106.13 61.75 97.37 53"/>
          <path d="M93.36,67.24l5.84-2.51-4.71-4.71-2.44,5.92c-.34,.83,.5,1.65,1.32,1.3Z"/>
        </g>
        <g>
          <rect x="97.35" y="40.54" width="30.17" height="12.38" transform="translate(-.11 93.19) rotate(-45)"/>
          <path d="M122.76,27.7l-3.3,3.3,8.75,8.75,3.3-3.3c1.17-1.17,1.17-3.07,0-4.24l-4.51-4.51c-1.17-1.17-3.07-1.17-4.24,0Z"/>
          <rect class="cls-1" x="122.95" y="29.52" width="1" height="12.38" transform="translate(10.91 97.75) rotate(-45)"/>
        </g>
      </g>
      <g>
        <path class="cls-5" d="M88.17,72.75c-1.81,1.97-5.21,4.35-10.31,2.76-5.57-1.74-12.07-10.78-23.4,.74"/>
        <path class="cls-5" d="M89.75,70.58s-.07,.13-.2,.34"/>
        <path class="cls-5" d="M52.25,78.41s-.05,.06-.23,.24"/>
      </g>
    </g>
    <polygon class="cls-6" points="37.92 15.84 47.45 15.84 42.68 21.98 37.92 28.12 33.16 21.98 28.4 15.84 37.92 15.84"/>
  </g>
</svg>