<?xml version="1.0" encoding="UTF-8"?>
<svg id="Layer_8" data-name="Layer 8" xmlns="http://www.w3.org/2000/svg" viewBox="0 0 200 200">
  <defs>
    <style>
      .cls-1 {
        fill: #f8f3fc;
      }

      .cls-2 {
        fill: #c8aaf1;
        stroke: #c8aaf1;
      }

      .cls-2, .cls-3, .cls-4, .cls-5, .cls-6, .cls-7, .cls-8, .cls-9, .cls-10 {
        stroke-miterlimit: 10;
      }

      .cls-11 {
        fill: #efbba5;
      }

      .cls-3, .cls-4, .cls-5, .cls-6 {
        stroke: #000;
      }

      .cls-3, .cls-4, .cls-6, .cls-7, .cls-8, .cls-12, .cls-10 {
        fill: none;
      }

      .cls-4, .cls-6, .cls-7, .cls-8, .cls-10 {
        stroke-linecap: round;
      }

      .cls-6 {
        stroke-width: 2px;
      }

      .cls-7, .cls-10 {
        stroke: #231f20;
      }

      .cls-8 {
        stroke: #fff;
      }

      .cls-9 {
        fill: #673AB7;
        stroke: #673AB7;
      }

      .cls-10 {
        stroke-width: .75px;
      }
    </style>
  </defs>
  <path class="cls-1" d="M135.76,44.79l-.02-10.42c0-2.76-2.25-5-5.01-4.99l-10.42,.02H29.8c-3.04,0-5.5,2.46-5.5,5.5V168.59c0,3.04,2.46,5.5,5.5,5.5h100.45c3.03,0,5.5-2.47,5.5-5.5V44.79Z"/>
  <rect class="cls-9" x="37.98" y="71.3" width="21.56" height="94.89" rx="5" ry="5"/>
  <line class="cls-8" x1="48.77" y1="79.22" x2="48.77" y2="158.28"/>
  <rect class="cls-9" x="68.48" y="71.3" width="21.56" height="94.89" rx="5" ry="5"/>
  <line class="cls-8" x1="79.26" y1="79.22" x2="79.26" y2="158.28"/>
  <rect class="cls-9" x="99.18" y="71.3" width="21.56" height="94.89" rx="5" ry="5"/>
  <line class="cls-8" x1="109.96" y1="79.22" x2="109.96" y2="158.28"/>
  <g>
    <rect x="102.53" y="79.11" width="8.29" height="32.08" rx="3" ry="3"/>
    <rect class="cls-1" x="105.82" y="78.82" width="8.29" height="32.08" rx="3" ry="3"/>
  </g>
  <g>
    <rect x="71.83" y="120.27" width="8.29" height="32.08" rx="3" ry="3"/>
    <rect class="cls-1" x="75.12" y="119.98" width="8.29" height="32.08" rx="3" ry="3"/>
  </g>
  <g>
    <rect x="41.33" y="100.21" width="8.29" height="32.08" rx="3" ry="3"/>
    <rect class="cls-1" x="44.62" y="99.92" width="8.29" height="32.08" rx="3" ry="3"/>
  </g>
  <g>
    <line class="cls-6" x1="95.72" y1="47.88" x2="49.66" y2="47.88"/>
    <line class="cls-6" x1="68.88" y1="56.29" x2="68.75" y2="56.29"/>
    <line class="cls-6" x1="95.72" y1="56.29" x2="76.53" y2="56.29"/>
    <line class="cls-6" x1="103.28" y1="56.29" x2="103.09" y2="56.29"/>
    <line class="cls-6" x1="103.28" y1="47.88" x2="103.09" y2="47.88"/>
  </g>
  <polygon class="cls-5" points="63.85 179.59 55.28 179.59 59.57 174.07 63.85 168.54 68.14 174.07 72.42 179.59 63.85 179.59"/>
  <g>
    <path class="cls-2" d="M177.13,121.76h-48.07c-1.66,0-3-1.34-3-3v-9.69c0-1.66,1.34-3,2.57-3h48.07c2.08,0,3.43,1.34,3.43,3v9.69c0,1.66-1.34,3-3,3Z"/>
    <g>
      <circle class="cls-12" cx="169.76" cy="114" r="5.42"/>
      <path class="cls-10" d="M172.91,118.34c-.33-1.06-1.55-1.85-3-1.85-1.54,0-2.81,.88-3.05,2.03"/>
      <circle class="cls-10" cx="169.79" cy="113.96" r="5.42"/>
      <circle class="cls-10" cx="169.75" cy="112.85" r="1.86"/>
    </g>
    <g>
      <line class="cls-7" x1="156.24" y1="112.21" x2="131.7" y2="112.21"/>
      <line class="cls-7" x1="136.82" y1="115.62" x2="136.82" y2="115.62"/>
      <line class="cls-7" x1="156.24" y1="115.62" x2="139.78" y2="115.62"/>
    </g>
  </g>
  <g>
    <rect class="cls-2" x="126.07" y="128.24" width="54.07" height="15.69" rx="3" ry="3"/>
    <g>
      <circle class="cls-12" cx="169.76" cy="136.17" r="5.42"/>
      <path class="cls-10" d="M172.91,140.51c-.33-1.06-1.55-1.85-3-1.85-1.54,0-2.81,.88-3.05,2.03"/>
      <circle class="cls-10" cx="169.79" cy="136.13" r="5.42"/>
      <circle class="cls-10" cx="169.75" cy="135.02" r="1.86"/>
    </g>
    <g>
      <line class="cls-7" x1="152.21" y1="134.38" x2="139.55" y2="134.38"/>
      <line class="cls-7" x1="156.24" y1="134.38" x2="156.24" y2="134.38"/>
      <line class="cls-7" x1="156.24" y1="137.79" x2="139.78" y2="137.79"/>
    </g>
  </g>
  <path class="cls-11" d="M149.39,64.84c-3.82,0-7.61-1.26-10.66-3.56-1.78-1.34-3.28-2.98-4.45-4.88l-5.78-9.4c-.54-.89-1.63-1.23-2.59-.83-1.05,.45-1.55,1.66-1.11,2.72l3.53,8.54s-.04-.02-.06-.02l-10.34-8.79c-.75-.63-1.83-.63-2.58,0-.83,.71-.92,1.96-.21,2.79l5.92,6.94-6.98-4.24c-.8-.49-1.85-.34-2.49,.35-.37,.4-.55,.91-.52,1.45,.03,.54,.27,1.03,.68,1.39l9.55,8.33c-1.05-.03-2.14,.4-2.96,1.19l-7.68,7.45c-.91,.89-.93,2.35-.04,3.26,.83,.85,2.17,.93,3.1,.18l5.98-4.81c1.63-1.31,3.67-2.03,5.76-2.03s3.64,1.63,3.64,3.64-1.63,3.64-3.64,3.64h-8.46c-1.13,0-2.04,.92-2.04,2.04,0,.85,.54,1.62,1.34,1.92l6.49,2.39c6.81,1.78,12.47,2.67,19.64,3.5l22.68,2v-25.18h-15.72Z"/>
  <g>
    <path class="cls-4" d="M126.98,64.54l-11.48-13.45c-.53-.62-.46-1.55,.16-2.09h0c.55-.48,1.37-.48,1.93,0l12,10.2"/>
    <path class="cls-4" d="M123.45,60.41l-9.65-5.86c-.6-.37-1.38-.26-1.86,.26h0c-.57,.61-.51,1.57,.12,2.12l11.64,10.16"/>
    <path class="cls-4" d="M149.38,65.34c-3.95,0-7.8-1.29-10.96-3.66h0c-1.82-1.37-3.37-3.07-4.57-5.02l-5.78-9.4c-.41-.67-1.25-.94-1.97-.63h0c-.8,.34-1.18,1.26-.85,2.07l4.8,11.64"/>
    <path class="cls-4" d="M126.24,85.14c.35,.11,.71,.21,1.06,.31"/>
    <path class="cls-4" d="M123.38,66.8h0c-1.46-1.02-3.43-.85-4.7,.38l-7.68,7.45c-.71,.7-.73,1.84-.03,2.56h0c.65,.67,1.7,.73,2.43,.14l5.98-4.81c1.72-1.39,3.87-2.14,6.08-2.14h0c2.29,0,4.14,1.86,4.14,4.14h0c0,2.29-1.86,4.14-4.14,4.14h-8.46c-.85,0-1.54,.69-1.54,1.54h0c0,.65,.4,1.22,1.01,1.45l6.49,2.39"/>
    <path class="cls-4" d="M132.23,69s2.29,7.72,9.84,7.47"/>
    <path class="cls-4" d="M128.64,67.74s.81-3.99,5.76-5.82"/>
  </g>
  <line class="cls-4" x1="153.55" y1="65.34" x2="155" y2="65.34"/>
  <polygon points="200 65.02 165.11 64.84 165.11 90.02 200 93.2 200 65.02"/>
  <circle class="cls-5" cx="77.89" cy="29.9" r="7.24"/>
  <circle class="cls-3" cx="63.85" cy="191.1" r="3.35"/>
  <circle class="cls-3" cx="60.51" cy="12.4" r="3.35"/>
  <circle class="cls-4" cx="150.6" cy="158.28" r="2.33"/>
  <circle class="cls-4" cx="154.28" cy="39.5" r="2.33"/>
</svg>