<?xml version="1.0" encoding="UTF-8"?>
<svg id="Layer_9" data-name="Layer 9" xmlns="http://www.w3.org/2000/svg" viewBox="0 0 200 200">
  <defs>
    <style>
      .cls-1 {
        fill: #efbba5;
      }

      .cls-2, .cls-3 {
        fill: none;
      }

      .cls-2, .cls-3, .cls-4, .cls-5 {
        stroke: #000;
        stroke-miterlimit: 10;
      }

      .cls-6 {
        fill: #c8aaf1;
      }

      .cls-3, .cls-5 {
        stroke-linecap: round;
      }

      .cls-4 {
        fill: #f8f3fc;
      }

      .cls-7 {
        fill: #673AB7;
      }

      .cls-5 {
        fill: #fff;
      }
    </style>
  </defs>
  <path d="M122.84,93.06h-50.81c-1.66,0-3-1.34-3-3V24.64c0-1.66,1.34-3,3-3h41c.27,0,.52,.11,.71,.29l11.84,11.69c.19,.19,.3,.44,.3,.71v55.73c0,1.66-1.36,3-3.03,3Z"/>
  <g>
    <path class="cls-4" d="M125.06,96h-50.13c-1.66,0-3-1.34-3-3V27.58c0-1.66,1.34-3,3-3h40.43c.27,0,.52,.11,.71,.29l11.69,11.69c.19,.19,.29,.44,.29,.71v55.73c0,1.66-1.34,3-3,3Z"/>
    <path d="M115.14,24.58v11.7c0,.58,.47,1.05,1.05,1.05h11.65l-4.52-4.56-8.19-8.19Z"/>
  </g>
  <path d="M81.14,29.67h1.36l4.19,11.36h-1.72l-3.15-9.16-3.15,9.16h-1.72l4.19-11.36Zm-2.26,7.35h5.98v1.52h-5.98v-1.52Z"/>
  <g>
    <path class="cls-6" d="M93.74,77.27h-11.77c-.83,0-1.5-.67-1.5-1.5v-11.61H39.62c-1.66,0-3,1.34-3,3v66.42c0,1.66,1.34,3,3,3h51.13c1.66,0,3-1.34,3-3v-56.31s0,0-.01,0Z"/>
    <path d="M81.97,77.27h11.77c-.02-.37-.17-.72-.43-.98l-11.69-11.69c-.28-.28-.66-.44-1.06-.44h-.09v11.61c0,.83,.67,1.5,1.5,1.5Z"/>
  </g>
  <g>
    <rect class="cls-5" x="42.61" y="86.7" width="20.67" height="24.15" rx="1" ry="1"/>
    <line class="cls-3" x1="42.99" y1="110.47" x2="62.96" y2="87.02"/>
    <line class="cls-3" x1="42.88" y1="87.26" x2="63.05" y2="110.63"/>
  </g>
  <g>
    <line class="cls-3" x1="62.96" y1="115.97" x2="42.99" y2="115.97"/>
    <line class="cls-3" x1="49.18" y1="120.39" x2="46.07" y2="120.39"/>
    <line class="cls-3" x1="62.96" y1="120.39" x2="53.82" y2="120.39"/>
  </g>
  <g>
    <path d="M46.31,69.35h1.36l4.19,11.36h-1.72l-3.15-9.16-3.15,9.16h-1.72l4.19-11.36Zm-2.26,7.35h5.98v1.52h-5.98v-1.52Z"/>
    <path d="M56.08,80.71h-1.59v-9.62l-1.62,.99v-1.65l1.62-1.08h1.59v11.36Z"/>
  </g>
  <g>
    <path class="cls-7" d="M162.86,76.77h-11.63c-.55,0-1-.45-1-1v-11.53c-.14-.04-.29-.07-.44-.07h-40.93c-1.66,0-3,1.34-3,3v66.42c0,1.66,1.34,3,3,3h51.13c1.66,0,3-1.34,3-3v-56.23c0-.2-.05-.4-.12-.58Z"/>
    <path d="M151.23,76.77h11.63c-.07-.18-.18-.34-.32-.48l-11.69-11.69c-.17-.17-.39-.29-.62-.37v11.53c0,.55,.45,1,1,1Z"/>
  </g>
  <rect class="cls-5" x="136.76" y="86.7" width="20.67" height="24.15" rx="1" ry="1"/>
  <line class="cls-5" x1="137.15" y1="110.47" x2="157.12" y2="87.02"/>
  <line class="cls-5" x1="137.04" y1="87.26" x2="157.2" y2="110.63"/>
  <g>
    <line class="cls-3" x1="157.2" y1="115.97" x2="137.15" y2="115.97"/>
    <line class="cls-3" x1="157.2" y1="120.39" x2="144.67" y2="120.39"/>
  </g>
  <rect class="cls-5" x="111.41" y="86.7" width="20.67" height="24.15" rx="1" ry="1"/>
  <line class="cls-5" x1="111.79" y1="110.47" x2="131.76" y2="87.02"/>
  <line class="cls-5" x1="111.68" y1="87.26" x2="131.85" y2="110.63"/>
  <g>
    <line class="cls-3" x1="131.85" y1="115.97" x2="111.79" y2="115.97"/>
    <line class="cls-3" x1="118.01" y1="120.39" x2="114.88" y2="120.39"/>
    <line class="cls-3" x1="131.85" y1="120.39" x2="122.66" y2="120.39"/>
  </g>
  <g>
    <path d="M116.19,69.35h1.36l4.19,11.36h-1.72l-3.15-9.16-3.15,9.16h-1.72l4.19-11.36Zm-2.26,7.35h5.98v1.52h-5.98v-1.52Z"/>
    <path d="M123.05,79.33l3.96-5.28c.23-.3,.41-.62,.54-.94,.13-.33,.19-.63,.19-.91v-.02c0-.45-.13-.8-.4-1.05s-.64-.38-1.13-.38c-.46,0-.84,.14-1.12,.41-.29,.27-.46,.66-.52,1.16h0s-1.65,0-1.65,0h0c.09-.66,.29-1.21,.57-1.68s.66-.81,1.12-1.05c.46-.24,.99-.36,1.59-.36,.68,0,1.25,.12,1.73,.35,.48,.23,.84,.57,1.09,1.01,.25,.44,.38,.98,.38,1.6h0c0,.41-.08,.83-.25,1.27-.17,.44-.4,.86-.7,1.27l-3.29,4.47h4.3v1.52h-6.41v-1.38Z"/>
  </g>
  <g>
    <path class="cls-1" d="M119.03,173.99l-2.95-23.19c-.36-2.83-.99-5.65-1.87-8.36-.38-1.17-1.46-1.96-2.7-1.96-.82,0-1.59,.35-2.13,.97-.17,.2-.3,.42-.42,.66-.6-.99-1.67-1.62-2.87-1.62-.97,0-1.9,.42-2.54,1.15-.19,.22-.34,.47-.47,.73-.56-1.14-1.72-1.88-3.02-1.88-.97,0-1.9,.42-2.54,1.15-.05,.06-.08,.12-.13,.18l-1.97-14.9c-.17-1.34-1.32-2.35-2.67-2.35-1.48,0-2.69,1.21-2.69,2.69v25.31c0,.07-.04,.1-.08,.12-.03,.02-.09,.02-.15-.03l-10.05-8.81c-.83-.72-2.04-.74-2.89-.04-.86,.72-1.05,1.98-.44,2.92l13.4,20.63c.49,.74,.75,1.6,.75,2.49v11.13l28.4-6.96Z"/>
    <polygon points="90.63 200.82 122.13 200.82 120.09 182.27 119.03 173.99 90.63 180.96 90.63 200.82"/>
  </g>
  <g>
    <path class="cls-3" d="M115.63,150.37c-.36-2.81-.98-5.58-1.85-8.27h0c-.31-.96-1.21-1.61-2.22-1.61h0c-1.41,0-2.5,1.24-2.32,2.64l.17,1.02"/>
    <line class="cls-3" x1="81.51" y1="145.39" x2="81" y2="145"/>
    <path class="cls-3" d="M97.59,146.2l-2.61-19.73c-.14-1.09-1.07-1.91-2.17-1.91h0c-1.21,0-2.19,.98-2.19,2.19v25.31c0,.55-.65,.83-1.05,.46l-5.54-4.85"/>
    <path class="cls-3" d="M97.32,144.11l-.05-.38c-.23-1.72,1.11-3.25,2.85-3.25h0c1.24,0,2.35,.8,2.73,1.98l1.19,3.68"/>
    <path class="cls-3" d="M103.29,143.73c-.23-1.72,1.11-3.25,2.85-3.25h0c1.24,0,2.35,.8,2.73,1.98l1.19,3.68"/>
  </g>
  <line class="cls-3" x1="116.82" y1="156.57" x2="117.23" y2="159.79"/>
  <g>
    <polygon points="64.23 50.08 60.32 55.12 56.41 60.16 52.5 55.12 48.59 50.08 64.23 50.08"/>
    <polygon points="64.23 38.54 60.32 43.58 56.41 48.62 52.5 43.58 48.59 38.54 64.23 38.54"/>
  </g>
  <g>
    <polygon points="93.77 115.43 93.77 107.61 98.81 111.52 103.85 115.43 98.81 119.34 93.77 123.25 93.77 115.43"/>
    <polyline points="82.23 107.61 87.27 111.52 92.31 115.43 87.27 119.34 82.23 123.25"/>
  </g>
  <circle cx="128.21" cy="50.77" r="6.21"/>
  <g>
    <circle class="cls-2" cx="157.43" cy="41.03" r="2.63"/>
    <circle class="cls-2" cx="64.23" cy="150.37" r="2.63"/>
    <circle class="cls-2" cx="60.12" cy="12.97" r="2.63"/>
  </g>
</svg>