<svg width="32px" height="34px" viewBox="0 0 32 34" version="1.1" xmlns="http://www.w3.org/2000/svg" xmlns:xlink="http://www.w3.org/1999/xlink">
    <!-- Generator: Sketch 52.1 (67048) - http://www.bohemiancoding.com/sketch -->
    <title>POD2</title>
    <desc>Created with Sketch.</desc>
    <g id="Page-1" stroke="none" stroke-width="1" fill="none" fill-rule="evenodd">
        <g id="Docs" transform="translate(-1734.000000, -1970.000000)" fill-rule="nonzero" stroke="#757575">
            <g id="Logo" transform="translate(1680.000000, 1971.000000)">
                <g id="POD2" transform="translate(55.000000, 0.000000)">
                    <path d="M4.57633588,28.0900763 C4.46925166,28.0900763 4.38244275,28.0032674 4.38244275,27.8961832 L4.38244275,17.7564885 C4.38276571,17.5571263 4.48999905,17.3732561 4.66335878,17.2748092 L17.9580153,9.74351145 C18.1291749,9.64614017 18.3392153,9.64719439 18.5093889,9.74627886 C18.6795626,9.84536333 18.7841613,10.0275093 18.7839695,10.2244275 L18.7839695,13.3480916 C18.7839695,13.4551758 18.6971606,13.5419847 18.5900763,13.5419847 C18.4829921,13.5419847 18.3961832,13.4551758 18.3961832,13.3480916 L18.3961832,10.2244275 C18.3962415,10.1654532 18.3649408,10.1108952 18.3140001,10.0811798 C18.2630593,10.0514643 18.2001614,10.0510731 18.148855,10.0801527 L4.85419847,17.6114504 C4.80195267,17.6410671 4.76960772,17.6964323 4.76946565,17.7564885 L4.76946565,27.8961832 C4.76946648,28.00297 4.68312187,28.0896559 4.57633588,28.0900763 Z" id="Shape"></path>
                    <path d="M7.62977099,29.9984733 C7.52268677,29.9984733 7.43587786,29.9116644 7.43587786,29.8045802 L7.43587786,19.7412214 C7.43620083,19.5418592 7.54343417,19.3579889 7.71679389,19.259542 L21.0114504,11.7282443 C21.1826101,11.630873 21.3926504,11.6319272 21.562824,11.7310117 C21.7329977,11.8300962 21.8375964,12.0122421 21.8374046,12.2091603 L21.8374046,15.0274809 C21.8374046,15.1345651 21.7505957,15.221374 21.6435115,15.221374 C21.5364272,15.221374 21.4496183,15.1345651 21.4496183,15.0274809 L21.4496183,12.2091603 C21.4496766,12.150186 21.418376,12.095628 21.3674352,12.0659126 C21.3164944,12.0361972 21.2535965,12.035806 21.2022901,12.0648855 L7.90763359,19.5961832 C7.85538779,19.6257999 7.82304283,19.6811651 7.82290076,19.7412214 L7.82290076,29.8045802 C7.82290159,29.911367 7.73655698,29.9980529 7.62977099,29.9984733 Z" id="Shape"></path>
                    <path d="M10.4687023,31.8274809 L8.86564885,30.778626 L0.841984733,26.1458015 C0.321576227,25.8429837 0.00167719826,25.2860685 0.00229007634,24.6839695 L0.00229007634,9.35267176 C0.00110259789,8.96145722 0.13604002,8.58201319 0.383969466,8.27938931 C0.511654101,8.12383607 0.666920372,7.99315363 0.841984733,7.89389313 L14.1244275,0.225954198 C14.3992283,0.0678169458 14.7129252,-0.00994603041 15.029771,0.00152671756 C15.1102375,0.00371281325 15.1903962,0.0123924137 15.2694656,0.027480916 C15.4573588,0.0627288817 15.6379917,0.129305015 15.8038168,0.224427481 L29.0862595,7.89389313 C29.60584,8.19604867 29.9256358,8.75162127 29.9259542,9.35267176 L29.9259542,24.6839695 C29.9259076,25.2852926 29.6060755,25.8412188 29.0862595,26.1435115 L25.2221374,28.4419847 C25.0601044,28.5371814 24.85959,28.5386909 24.6961422,28.4459445 C24.5326943,28.3531981 24.4311511,28.1802898 24.429771,27.9923664 L24.429771,13.9648855 C24.4298293,13.9059112 24.3985286,13.8513532 24.3475879,13.8216378 C24.2966471,13.7919224 24.2337492,13.7915312 24.1824427,13.8206107 L10.8847328,21.3519084 C10.832487,21.3815251 10.8001421,21.4368903 10.8,21.4969466 L10.8,31.6366412 C10.7873232,31.7574793 10.7173499,31.8468652 10.5965118,31.859542 C10.5370739,31.8594079 10.5001978,31.8482655 10.4687023,31.8274809 Z M10.4129771,31.3251908 L10.4129771,21.4969466 C10.4133001,21.2975843 10.5205334,21.1137141 10.6938931,21.0152672 L23.9885496,13.4839695 C24.1597093,13.3865982 24.3697496,13.3876524 24.5399233,13.4867369 C24.7100969,13.5858213 24.8146957,13.7679673 24.8145038,13.9648855 L24.8145038,27.9923664 C24.8143054,28.042223 24.8409822,28.0883196 24.884309,28.1129875 C24.9276358,28.1376553 24.980892,28.1370679 25.0236641,28.1114504 L28.8900763,25.8114504 C29.2947724,25.5803541 29.544477,25.1499999 29.5442748,24.6839695 L29.5442748,9.35267176 C29.5440935,8.88954107 29.2971088,8.46160875 28.8961832,8.22977099 L15.6129771,0.561832061 C15.4847843,0.487708511 15.3448506,0.436072461 15.1992366,0.409160305 C15.138272,0.397607547 15.0765156,0.39071737 15.0145038,0.388549618 C14.7697122,0.378868756 14.5272111,0.438964566 14.3152672,0.561832061 L1.03282443,8.22900763 C0.898619583,8.30538967 0.779594421,8.4057848 0.681679389,8.52519084 C0.489497676,8.75815429 0.384257162,9.05066895 0.383969466,9.35267176 L0.383969466,24.6839695 C0.384035781,25.1475302 0.631369011,25.5758532 1.03282443,25.8076336 L9.06335878,30.4458015 L10.4129771,31.3251908 Z" id="Shape"></path>
                </g>
            </g>
        </g>
    </g>
</svg>