<svg xmlns="http://www.w3.org/2000/svg" width="60" height="44" viewBox="0 0 60 44"><g fill-rule="nonzero" fill="none"><path d="M43.455 21.98H39.52v16.014h3.934V21.98zM23.788 39.995h-7.867V44h7.867v-4.005zm-11.8-19.997h3.933v-4.003h-3.933v4.003zm11.8 0h7.867v-4.003h-7.867v4.003zm7.867 1.982v12.011H27.72V21.98h-11.8v12.011H8.055c-2.173 0-3.934-1.793-3.934-4.004 0-2.21 1.761-4.004 3.934-4.004h3.933V21.98H8.055c-4.345 0-7.867 3.584-7.867 8.007 0 4.422 3.522 8.007 7.867 8.007h11.8V25.983h3.933v12.011h11.8V21.98h-3.933zm19.654-11.483h-3.946C47.113 13.578 44.58 16 41.488 16c-3.258 0-5.9-2.689-5.9-6.006 0-3.147 2.38-5.724 5.408-5.98V0c-5.202.26-9.341 4.636-9.341 9.995 0 5.529 4.402 10.009 9.833 10.009 5.266 0 9.565-4.213 9.82-9.507m7.88 19.49c0-4.423-3.522-8.007-7.867-8.007h-3.933v4.003h3.933c2.173 0 3.934 1.793 3.934 4.004 0 2.211-1.761 4.004-3.934 4.004h-3.933v4.003h3.933c4.345 0 7.867-3.585 7.867-8.007" fill="#005B31"></path><path d="M42.188 2.852v.953A5.689 5.689 0 0 1 47.382 9h.953a6.64 6.64 0 0 0-6.147-6.148m0-1.426v.951A7.113 7.113 0 0 1 48.811 9h.951a8.063 8.063 0 0 0-7.574-7.574m9 7.574a9.487 9.487 0 0 0-9-9v.95A8.537 8.537 0 0 1 50.238 9h.95z" fill="#F18700"></path></g></svg>